<?xml version="1.0" encoding="UTF-8"?>
<svg id="Layer_2" data-name="Layer 2" xmlns="http://www.w3.org/2000/svg" viewBox="0 0 354.33 204.53">
  <defs>
    <style>
      .cls-1 {
        fill: #cd202f;
      }

      .cls-1, .cls-2 {
        stroke-width: 0px;
      }

      .cls-2 {
        fill: #304e9a;
      }
    </style>
  </defs>
  <g id="Layer_5" data-name="Layer 5">
    <g id="Sticker">
      <g>
        <g>
          <path class="cls-1" d="M121.06,58.97c-10.63-1.52-19.49,5.56-19.49,5.56,5.56-12.91.25-28.09-12.4-37.71-12.66-9.62-4.56-26.83-4.56-26.83-18.98,10.38-14.93,34.17-13.16,36.19,1.77,2.03,8.61,15.18-2.28,15.44-10.88.26-10.62-15.44-10.62-15.44-7.09,7.09-1.52,19.23-1.52,19.23-8.35-.5-9.11-10.88-9.11-10.88-7.6,8.35-2.53,24.04-2.53,24.04-9.87-4.81-7.34-14.93-7.34-14.93-10.64,7.68-6.61,17.52-3.08,22.9-.79.67-1.56,1.38-2.3,2.1-4.78,4.65-8.54,10.1-11.27,16.39-2.73,6.28-4.1,12.97-4.1,20.08s1.36,13.79,4.1,20.08c2.73,6.28,6.49,11.75,11.27,16.39,4.78,4.64,10.36,8.33,16.73,11.06,6.38,2.73,13.21,4.1,20.5,4.1,5.83,0,11.15-.68,15.98-2.03,4.83-1.36,9.22-3.26,13.18-5.71,3.96-2.45,7.54-5.41,10.72-8.9,3.19-3.49,6.1-7.36,8.74-11.63.46-.82.55-1.62.28-2.39-.28-.78-.82-1.35-1.64-1.71l-13.15-5.19-1.86-.73-4.39-1.73c-.91-.36-1.8-.36-2.67,0-.87.36-1.53.91-1.98,1.63-2.37,3.83-5.58,6.95-9.63,9.36-4.05,2.42-8.58,3.62-13.59,3.62-3.46,0-6.72-.73-9.77-2.19-3.06-1.46-5.71-3.38-8-5.75-2.27-2.37-4.05-5.14-5.32-8.28-1.28-3.15-1.91-6.46-1.91-9.93s.63-6.66,1.91-9.86c1.27-3.19,3.05-6,5.32-8.42,2.28-2.42,4.94-4.37,8-5.82,3.05-1.46,6.3-2.2,9.77-2.2,5.28,0,9.79,1.12,13.52,3.35,3.73,2.23,6.92,5.44,9.56,9.63.45.73,1.14,1.27,2.05,1.64.91.36,1.82.36,2.73,0l12.31-4.86,7.09-2.79c.82-.37,1.36-.96,1.64-1.78.02-.06.04-.11.05-.17.19-.71.11-1.39-.26-2.03-.4-2.85-.94-5.74-1.57-8.62-4.3-19.74,4.05-24.3,4.05-24.3ZM36.39,75.36c-.75-4.34,1.15-5.5,1.15-5.5.76,1.14,1.6,2.07,2.5,2.82-1.26.84-2.48,1.75-3.65,2.69ZM50.97,66.95c.81-3.15,3.28-5.44,3.28-5.44.29.96.84,2.32,1.69,3.81-1.69.45-3.34.99-4.97,1.63ZM92.03,67.58c-1.87-.78-3.84-1.46-5.88-2.04-.12-.03-.24-.07-.36-.1,3.24-6.53,2.63-14.07,2.63-14.07,2.48,4.47,4.71,4.07,3.61,16.2Z"/>
          <path class="cls-1" d="M177.71,165.8c-7.28,0-14.1-1.36-20.46-4.09-6.37-2.73-11.94-6.41-16.71-11.05-4.77-4.64-8.55-10.1-11.32-16.37-2.78-6.28-4.16-12.96-4.16-20.05s1.39-13.78,4.16-20.05c2.77-6.28,6.55-11.75,11.32-16.44,4.78-4.68,10.34-8.39,16.71-11.12,6.37-2.73,13.19-4.09,20.46-4.09,10,0,18.71,2.05,26.12,6.14,7.41,4.09,13.44,9.73,18.08,16.92.45.73.57,1.57.34,2.52-.23.96-.71,1.66-1.43,2.11l-16.37,10.5c-.73.46-1.55.61-2.46.48-.91-.14-1.68-.57-2.32-1.3-2.82-3.46-5.98-6.23-9.48-8.32-3.5-2.09-7.66-3.14-12.48-3.14-3.46,0-6.71.71-9.75,2.11-3.05,1.41-5.71,3.3-7.98,5.66-2.27,2.37-4.07,5.12-5.39,8.25-1.32,3.14-1.98,6.39-1.98,9.75s.66,6.73,1.98,9.82c1.32,3.09,3.11,5.8,5.39,8.12,2.27,2.32,4.93,4.18,7.98,5.59,3.05,1.41,6.3,2.11,9.75,2.11s6.87-.64,10.23-1.91c3.36-1.27,6.05-3.36,8.05-6.28.45-.73.5-1.39.14-1.98-.36-.59-1-.89-1.91-.89h-15.69c-.91,0-1.68-.32-2.32-.96-.64-.64-.95-1.41-.95-2.32v-16.23c0-.91.32-1.68.95-2.32.64-.64,1.41-.96,2.32-.96h46.93c.91,0,1.71.3,2.39.89.68.59,1.07,1.39,1.16,2.39.18,1.55.27,3.43.27,5.66s-.14,4.53-.41,6.89c-.64,6.28-2.41,12.1-5.32,17.46-2.91,5.37-6.66,10.01-11.26,13.92-4.59,3.91-9.85,6.98-15.76,9.21-5.91,2.23-12.19,3.34-18.83,3.34Z"/>
          <path class="cls-1" d="M336.31,66.48l-35.32,57.22c-.47.85-.9,1.89-1.27,3.11-.38,1.22-.57,2.31-.57,3.25v32.35c0,.94-.33,1.74-.98,2.4-.66.66-1.45.99-2.39.99h-21.23c-.94,0-1.74-.33-2.39-.99-.66-.66-.98-1.46-.98-2.4v-32.21c0-.94-.17-2.05-.49-3.32-.33-1.27-.73-2.28-1.2-3.04-5.65-9.7-11.42-19.21-17.31-28.54-5.89-9.32-11.75-18.93-17.59-28.82-.47-.85-.57-1.72-.28-2.61.28-.89.9-1.34,1.84-1.34h25.15c.94,0,1.91.28,2.9.85.99.57,1.72,1.27,2.19,2.12l17.31,30.23c.47.76,1.03,1.13,1.69,1.13s1.22-.37,1.69-1.13l17.17-30.23c.47-.85,1.2-1.55,2.19-2.12.99-.56,1.95-.85,2.9-.85h25.43c.94,0,1.62.33,2.05.99.42.66.26,1.65-.49,2.97Z"/>
        </g>
        <g>
          <g>
            <path class="cls-2" d="M26.23,197.2c-.68,1.11-1.44,2.11-2.27,3.01-.83.9-1.75,1.67-2.78,2.31s-2.17,1.13-3.42,1.48c-1.25.35-2.63.53-4.14.53-1.89,0-3.66-.35-5.31-1.06-1.65-.71-3.1-1.66-4.34-2.87-1.24-1.2-2.21-2.62-2.92-4.25-.71-1.63-1.06-3.36-1.06-5.2s.35-3.58,1.06-5.2c.71-1.63,1.68-3.04,2.92-4.25,1.24-1.2,2.68-2.16,4.34-2.87,1.65-.71,3.42-1.06,5.31-1.06,1.56,0,2.96.18,4.21.53,1.25.35,2.38.85,3.4,1.49,1.01.64,1.93,1.41,2.74,2.32.81.91,1.56,1.91,2.25,2.99.12.19.14.39.07.6-.07.21-.21.37-.43.46l-5.03,1.98c-.24.09-.47.09-.71,0-.24-.09-.41-.24-.53-.42-.68-1.09-1.51-1.92-2.48-2.5-.97-.58-2.14-.87-3.5-.87-.9,0-1.74.19-2.53.57s-1.48.88-2.07,1.51c-.59.63-1.05,1.35-1.38,2.18-.33.83-.5,1.68-.5,2.56s.16,1.76.5,2.57c.33.82.79,1.53,1.38,2.15.59.62,1.28,1.11,2.07,1.49s1.63.57,2.53.57c1.3,0,2.47-.31,3.52-.94,1.05-.63,1.88-1.43,2.5-2.43.12-.19.29-.33.51-.42.22-.09.45-.09.69,0l5.03,1.98c.21.09.35.24.43.44.07.2.05.41-.07.62Z"/>
            <path class="cls-2" d="M28.97,174.78c0-.18.06-.33.19-.46.13-.13.28-.19.46-.19h4.05c.18,0,.33.06.46.19.13.13.19.28.19.46v10.92c0,.7.11,1.28.34,1.74s.51.82.84,1.08c.33.26.69.45,1.07.55.38.11.72.16,1.03.16s.65-.05,1.03-.16c.38-.11.73-.29,1.06-.55.32-.26.6-.62.83-1.08.23-.46.34-1.04.34-1.74v-10.92c0-.18.06-.33.19-.46.13-.13.28-.19.46-.19h4.05c.18,0,.33.06.46.19.13.13.19.28.19.46v10.92c0,1.28-.2,2.44-.61,3.48s-.98,1.93-1.74,2.67c-.75.74-1.66,1.31-2.72,1.71-1.06.4-2.23.61-3.53.61s-2.47-.2-3.53-.61c-1.06-.4-1.97-.98-2.72-1.71-.75-.74-1.34-1.63-1.75-2.67-.41-1.04-.62-2.2-.62-3.48v-10.92Z"/>
            <path class="cls-2" d="M53.5,194.83h-4.04c-.18,0-.33-.06-.46-.19s-.19-.28-.19-.46v-18.45c0-.18.06-.33.19-.46.13-.13.28-.19.46-.19h8.39c1.04,0,2,.18,2.89.53.88.35,1.63.84,2.25,1.47.62.63,1.11,1.38,1.46,2.24.35.86.53,1.82.53,2.86,0,.58-.07,1.15-.2,1.71-.13.57-.33,1.1-.58,1.6-.25.5-.55.96-.89,1.36-.34.4-.73.74-1.16,1.01-.14.11-.24.24-.28.39-.05.15-.01.3.09.44.68.9,1.4,1.83,2.16,2.78.76.95,1.43,1.83,2.02,2.62.11.14.14.3.08.47-.05.17-.17.26-.35.26h-5.02c-.18,0-.37-.05-.58-.15-.21-.1-.36-.22-.47-.36-.57-.76-1.14-1.52-1.7-2.29-.56-.77-1.12-1.55-1.68-2.35-.11-.14-.26-.27-.46-.36-.2-.1-.39-.15-.56-.15h-.59c-.18,0-.33.06-.46.19-.13.13-.19.28-.19.46v4.37c0,.18-.06.33-.19.46s-.28.19-.46.19ZM54.8,184.2h2.84c.21,0,.44-.04.67-.12.23-.08.45-.21.64-.38.2-.17.36-.38.48-.63.13-.25.19-.55.19-.89,0-.18-.03-.39-.09-.63-.06-.24-.17-.48-.32-.7-.15-.22-.36-.41-.62-.57-.26-.15-.58-.23-.95-.23h-2.84c-.18,0-.33.06-.46.19-.13.13-.19.28-.19.46v2.86c0,.18.06.33.19.46.13.13.28.19.46.19Z"/>
            <path class="cls-2" d="M73.56,200.58h-4.05c-.2,0-.35-.06-.47-.19s-.17-.28-.17-.46v-18.42c0-.18.06-.33.17-.46.12-.13.27-.19.47-.19h4.05c.18,0,.33.06.46.19.13.13.19.28.19.46v18.42c0,.18-.06.33-.19.46-.13.13-.28.19-.46.19Z"/>
            <path class="cls-2" d="M76.84,183.04c0-1.4.27-2.72.81-3.96s1.27-2.32,2.18-3.25c.92-.93,2-1.66,3.24-2.2,1.24-.54,2.56-.81,3.96-.81s2.72.27,3.96.81c1.24.54,2.32,1.27,3.25,2.2.93.93,1.66,2.01,2.2,3.25.54,1.24.81,2.56.81,3.96s-.27,2.72-.81,3.96c-.54,1.24-1.27,2.32-2.2,3.25-.93.93-2.01,1.66-3.25,2.2-1.24.54-2.56.81-3.96.81s-2.72-.27-3.96-.81c-1.24-.54-2.32-1.27-3.24-2.2-.92-.93-1.64-2.01-2.18-3.25-.54-1.24-.81-2.56-.81-3.96ZM82.18,183.04c0,.68.13,1.33.38,1.94.25.61.6,1.15,1.04,1.62.44.47.96.84,1.55,1.12.59.28,1.22.42,1.89.42s1.29-.14,1.89-.42c.59-.28,1.11-.65,1.56-1.12.45-.47.8-1.01,1.05-1.62.25-.61.38-1.26.38-1.94s-.13-1.31-.38-1.93c-.25-.62-.6-1.16-1.05-1.62-.45-.46-.97-.83-1.56-1.11-.59-.28-1.22-.42-1.89-.42s-1.29.14-1.89.42c-.59.28-1.11.65-1.55,1.11-.44.46-.79,1-1.04,1.62-.25.62-.38,1.26-.38,1.93Z"/>
          </g>
          <g>
            <path class="cls-2" d="M119.2,204.53c-1.89,0-3.66-.35-5.31-1.06-1.65-.71-3.1-1.66-4.34-2.87-1.24-1.2-2.22-2.62-2.94-4.25-.72-1.63-1.08-3.36-1.08-5.2s.36-3.58,1.08-5.2c.72-1.63,1.7-3.05,2.94-4.27,1.24-1.22,2.68-2.18,4.34-2.88,1.65-.71,3.42-1.06,5.31-1.06,2.6,0,4.86.53,6.78,1.59,1.92,1.06,3.49,2.53,4.69,4.39.12.19.15.41.09.65-.06.25-.18.43-.37.55l-4.25,2.73c-.19.12-.4.16-.64.12s-.44-.15-.6-.34c-.73-.9-1.55-1.62-2.46-2.16-.91-.54-1.99-.81-3.24-.81-.9,0-1.74.18-2.53.55-.79.37-1.48.86-2.07,1.47-.59.61-1.06,1.33-1.4,2.14-.34.81-.51,1.66-.51,2.53s.17,1.75.51,2.55c.34.8.81,1.5,1.4,2.11s1.28,1.09,2.07,1.45c.79.37,1.63.55,2.53.55s1.78-.17,2.66-.5c.87-.33,1.57-.87,2.09-1.63.12-.19.13-.36.04-.51-.09-.15-.26-.23-.5-.23h-4.07c-.24,0-.44-.08-.6-.25-.17-.16-.25-.37-.25-.6v-4.21c0-.24.08-.44.25-.6.16-.17.37-.25.6-.25h12.18c.24,0,.44.08.62.23.18.15.28.36.3.62.05.4.07.89.07,1.47s-.04,1.17-.11,1.79c-.17,1.63-.63,3.14-1.38,4.53-.76,1.39-1.73,2.6-2.92,3.61-1.19,1.02-2.56,1.81-4.09,2.39-1.53.58-3.16.87-4.89.87Z"/>
            <path class="cls-2" d="M139.9,195.79h-4.04c-.18,0-.33-.06-.46-.19s-.19-.28-.19-.46v-18.45c0-.18.06-.33.19-.46.13-.13.28-.19.46-.19h8.39c1.04,0,2,.18,2.89.53.88.35,1.63.84,2.25,1.47.62.63,1.11,1.38,1.46,2.24s.53,1.82.53,2.86c0,.58-.07,1.15-.2,1.71-.13.57-.33,1.1-.58,1.6-.25.5-.55.96-.89,1.36-.34.4-.73.74-1.16,1.01-.14.11-.24.24-.28.39-.05.15-.01.3.09.44.68.9,1.4,1.83,2.16,2.78.76.95,1.43,1.83,2.02,2.62.11.14.14.3.08.47-.05.17-.17.26-.35.26h-5.02c-.18,0-.37-.05-.58-.15-.21-.1-.36-.22-.47-.36-.57-.76-1.14-1.52-1.7-2.29-.56-.77-1.12-1.55-1.68-2.35-.11-.14-.26-.27-.46-.36-.2-.1-.39-.15-.56-.15h-.59c-.18,0-.33.06-.46.19-.13.13-.19.28-.19.46v4.37c0,.18-.06.33-.19.46s-.28.19-.46.19ZM141.2,185.16h2.84c.21,0,.44-.04.67-.12.23-.08.45-.21.64-.38.2-.17.36-.38.48-.63.13-.25.19-.55.19-.89,0-.18-.03-.39-.09-.63-.06-.24-.17-.48-.32-.7-.15-.22-.36-.41-.62-.57-.26-.15-.58-.23-.95-.23h-2.84c-.18,0-.33.06-.46.19-.13.13-.19.28-.19.46v2.86c0,.18.06.33.19.46.13.13.28.19.46.19Z"/>
            <path class="cls-2" d="M163.18,182.45c.07-.16.19-.3.36-.42.17-.12.36-.18.55-.18h3.78c.18,0,.35.06.53.18.17.12.29.26.36.42l7.88,18.34c.07.16.06.33-.04.51-.1.18-.29.27-.58.27h-4.61c-.2,0-.38-.06-.55-.18-.17-.12-.3-.26-.39-.42l-.73-1.62c-.09-.16-.22-.3-.39-.42-.17-.12-.35-.18-.53-.18h-5.69c-.2,0-.38.06-.55.18-.17.12-.29.26-.36.42l-.76,1.62c-.07.16-.19.3-.36.42-.17.12-.35.18-.53.18h-4.64c-.09,0-.18-.02-.28-.05-.1-.04-.18-.09-.24-.16-.06-.07-.1-.16-.12-.27-.02-.11,0-.23.08-.38l7.82-18.26ZM164.77,194.18h2.4c.18,0,.31-.06.39-.18.08-.12.08-.26-.01-.42-.18-.45-.4-.98-.65-1.58-.25-.6-.49-1.16-.7-1.69-.07-.16-.15-.24-.24-.24s-.17.08-.24.24l-1.35,3.26c-.07.16-.07.3,0,.42.07.12.21.18.4.18Z"/>
            <path class="cls-2" d="M187.65,191.43h-2.35c-.18,0-.33.06-.46.19s-.19.28-.19.46v4.02c0,.18-.06.33-.19.46-.13.13-.28.19-.46.19h-4.05c-.18,0-.33-.06-.46-.19s-.19-.28-.19-.46v-18.45c0-.18.06-.33.19-.46.13-.13.28-.19.46-.19h8.25c1.01,0,1.96.19,2.85.57s1.66.9,2.32,1.56c.66.67,1.18,1.44,1.56,2.32.39.88.58,1.83.58,2.83s-.16,1.95-.49,2.82c-.32.87-.82,1.63-1.47,2.27-.66.64-1.48,1.14-2.46,1.51-.98.37-2.13.55-3.45.55ZM187.85,181.97h-2.55c-.18,0-.33.06-.46.19-.13.13-.19.28-.19.46v3.16c0,.18.06.33.19.46.13.13.28.19.46.19h2.9c.69,0,1.19-.22,1.5-.66.32-.44.47-.93.47-1.49,0-.29-.05-.57-.15-.84-.1-.28-.25-.52-.45-.74-.2-.21-.44-.39-.73-.52-.29-.13-.62-.2-1-.2Z"/>
            <path class="cls-2" d="M215.66,178.61v18.45c0,.18-.06.33-.19.46s-.28.19-.46.19h-4.05c-.2,0-.36-.06-.47-.19s-.18-.28-.18-.46v-5.77c0-.18-.06-.33-.19-.46-.13-.13-.28-.19-.46-.19h-5.53c-.2,0-.35.06-.47.19s-.17.28-.17.46v5.77c0,.18-.06.33-.19.46-.13.13-.28.19-.46.19h-4.04c-.2,0-.36-.06-.47-.19-.12-.13-.18-.28-.18-.46v-18.45c0-.18.06-.33.18-.46.12-.13.28-.19.47-.19h4.04c.18,0,.33.06.46.19.13.13.19.28.19.46v6.37c0,.18.06.33.17.46.12.13.27.19.47.19h5.53c.18,0,.33-.06.46-.19.13-.13.19-.28.19-.46v-6.37c0-.18.06-.33.18-.46.12-.13.27-.19.47-.19h4.05c.18,0,.33.06.46.19.13.13.19.28.19.46Z"/>
            <path class="cls-2" d="M222.99,202.56h-4.05c-.2,0-.35-.06-.47-.19s-.17-.28-.17-.46v-18.42c0-.18.06-.33.17-.46.12-.13.27-.19.47-.19h4.05c.18,0,.33.06.46.19.13.13.19.28.19.46v18.42c0,.18-.06.33-.19.46-.13.13-.28.19-.46.19Z"/>
            <path class="cls-2" d="M246.25,187.93c-.52.84-1.1,1.61-1.73,2.3s-1.33,1.27-2.12,1.76c-.78.48-1.65.86-2.6,1.13-.95.27-2.01.4-3.16.4-1.44,0-2.79-.27-4.04-.81-1.26-.54-2.36-1.27-3.3-2.18-.94-.92-1.69-2-2.23-3.24-.54-1.24-.81-2.56-.81-3.96s.27-2.72.81-3.96c.54-1.24,1.28-2.32,2.23-3.24.94-.92,2.04-1.65,3.3-2.18,1.26-.54,2.61-.81,4.04-.81,1.19,0,2.26.13,3.21.4.95.27,1.82.65,2.59,1.13.77.49,1.47,1.07,2.09,1.77.62.69,1.19,1.45,1.71,2.28.09.14.11.3.05.46-.05.16-.16.28-.32.35l-3.83,1.51c-.18.07-.36.07-.54,0-.18-.07-.31-.18-.4-.32-.52-.83-1.15-1.46-1.89-1.9-.74-.44-1.63-.66-2.67-.66-.68,0-1.33.14-1.93.43-.6.29-1.13.67-1.58,1.15-.45.48-.8,1.03-1.05,1.66-.25.63-.38,1.28-.38,1.95s.13,1.34.38,1.96c.25.62.6,1.17,1.05,1.64.45.47.98.85,1.58,1.14.6.29,1.24.43,1.93.43.99,0,1.88-.24,2.68-.71.8-.48,1.43-1.09,1.9-1.85.09-.14.22-.25.39-.32.17-.07.35-.07.53,0l3.83,1.51c.16.07.27.18.32.34.05.15.04.31-.05.47Z"/>
            <path class="cls-2" d="M252.1,186.71c.97.63,1.93,1.12,2.89,1.48.95.36,1.84.54,2.67.54s1.39-.11,1.81-.34c.41-.22.62-.56.62-1.01,0-.23-.09-.42-.27-.55-.18-.13-.42-.25-.71-.34-.3-.09-.64-.16-1.04-.22-.4-.05-.8-.13-1.21-.22-.4-.07-.86-.16-1.39-.26s-1.07-.24-1.63-.43c-.56-.19-1.11-.43-1.66-.71-.55-.29-1.04-.66-1.47-1.11-.43-.45-.78-.98-1.04-1.6-.26-.62-.39-1.35-.39-2.2,0-1.24.24-2.27.73-3.07.49-.81,1.1-1.45,1.85-1.93.75-.48,1.58-.81,2.49-1,.92-.19,1.81-.28,2.67-.28,1.51,0,2.86.22,4.06.66,1.2.44,2.34,1.08,3.44,1.93.14.13.23.28.24.46.02.18-.03.34-.13.49l-2.1,2.99c-.11.14-.25.23-.43.27-.18.04-.34,0-.49-.11-.92-.58-1.77-.98-2.56-1.23-.79-.24-1.52-.36-2.18-.36-.2,0-.43,0-.69.01-.26,0-.51.04-.74.11-.23.06-.43.17-.58.31-.15.14-.23.34-.23.59s.19.48.57.67c.38.2.81.37,1.29.51.49.14.95.26,1.4.34.45.08.74.13.86.15.65.13,1.36.31,2.13.55.77.24,1.5.6,2.17,1.08.67.48,1.24,1.1,1.7,1.86.46.76.69,1.72.69,2.87,0,1.08-.19,2.01-.57,2.79-.38.78-.9,1.43-1.58,1.93-.67.5-1.48.88-2.43,1.12-.94.24-1.99.36-3.14.36-.94,0-1.81-.08-2.62-.23-.81-.15-1.56-.36-2.27-.63-.7-.27-1.35-.59-1.96-.96-.6-.37-1.16-.76-1.66-1.17-.14-.11-.23-.26-.24-.44-.02-.19.03-.35.14-.5l2.08-2.99c.11-.14.25-.23.43-.27.18-.04.34,0,.49.08Z"/>
          </g>
          <g>
            <path class="cls-2" d="M299.3,173.55l-8.85,14.34c-.12.21-.22.47-.32.78-.09.31-.14.58-.14.81v8.11c0,.24-.08.44-.25.6-.16.17-.36.25-.6.25h-5.32c-.23,0-.43-.08-.6-.25-.16-.16-.25-.37-.25-.6v-8.07c0-.24-.04-.51-.12-.83-.08-.32-.18-.57-.3-.76-1.42-2.43-2.86-4.81-4.34-7.15-1.48-2.34-2.94-4.74-4.41-7.22-.12-.21-.14-.43-.07-.66.07-.22.22-.34.46-.34h6.3c.24,0,.48.07.73.21.25.14.43.32.55.53l4.34,7.57c.12.19.26.28.42.28s.31-.09.42-.28l4.3-7.57c.12-.21.3-.39.55-.53.25-.14.49-.21.73-.21h6.37c.24,0,.41.08.51.25.11.17.06.41-.12.74Z"/>
            <path class="cls-2" d="M300.23,184.42c.07-.16.19-.3.36-.42.17-.12.36-.18.55-.18h3.78c.18,0,.35.06.53.18.17.12.29.26.36.42l7.88,18.34c.07.16.06.33-.04.51-.1.18-.29.27-.58.27h-4.61c-.2,0-.38-.06-.55-.18-.17-.12-.3-.26-.39-.42l-.73-1.62c-.09-.16-.22-.3-.39-.42-.17-.12-.35-.18-.53-.18h-5.69c-.2,0-.38.06-.55.18-.17.12-.29.26-.36.42l-.76,1.62c-.07.16-.19.3-.36.42-.17.12-.35.18-.53.18h-4.64c-.09,0-.18-.02-.28-.05-.1-.04-.18-.09-.24-.16-.06-.07-.1-.16-.12-.27-.02-.11,0-.23.08-.38l7.82-18.26ZM301.82,196.15h2.4c.18,0,.31-.06.39-.18.08-.12.08-.26-.01-.42-.18-.45-.4-.98-.65-1.58-.25-.6-.49-1.16-.7-1.69-.07-.16-.15-.24-.24-.24s-.17.08-.24.24l-1.35,3.26c-.07.16-.07.3,0,.42.07.12.21.18.4.18Z"/>
            <path class="cls-2" d="M321.06,198.67h-4.04c-.18,0-.33-.06-.46-.19s-.19-.28-.19-.46v-18.45c0-.18.06-.33.19-.46.13-.13.28-.19.46-.19h8.39c1.04,0,2,.18,2.89.53.88.35,1.63.84,2.25,1.47.62.63,1.11,1.38,1.46,2.24.35.86.53,1.82.53,2.86,0,.58-.07,1.15-.2,1.71-.13.57-.33,1.1-.58,1.6-.25.5-.55.96-.89,1.36-.34.4-.73.74-1.16,1.01-.14.11-.24.24-.28.39-.05.15-.01.3.09.44.68.9,1.4,1.83,2.16,2.78.76.95,1.43,1.83,2.02,2.62.11.14.14.3.08.47-.05.17-.17.26-.35.26h-5.02c-.18,0-.37-.05-.58-.15-.21-.1-.36-.22-.47-.36-.57-.76-1.14-1.52-1.7-2.29-.56-.77-1.12-1.55-1.68-2.35-.11-.14-.26-.27-.46-.36-.2-.1-.39-.15-.56-.15h-.59c-.18,0-.33.06-.46.19-.13.13-.19.28-.19.46v4.37c0,.18-.06.33-.19.46s-.28.19-.46.19ZM322.35,188.04h2.84c.21,0,.44-.04.67-.12.23-.08.45-.21.64-.38.2-.17.36-.38.48-.63.13-.25.19-.55.19-.89,0-.18-.03-.39-.09-.63-.06-.24-.17-.48-.32-.7-.15-.22-.36-.41-.62-.57-.26-.15-.58-.23-.95-.23h-2.84c-.18,0-.33.06-.46.19-.13.13-.19.28-.19.46v2.86c0,.18.06.33.19.46.13.13.28.19.46.19Z"/>
            <path class="cls-2" d="M336.42,198.98v-18.45c0-.18.06-.33.19-.46.13-.13.28-.19.46-.19h7.36c2.82,0,5.13.83,6.93,2.48.97.9,1.71,1.97,2.21,3.21.5,1.24.76,2.63.76,4.18s-.25,2.94-.76,4.19c-.5,1.25-1.24,2.32-2.21,3.22-.9.81-1.93,1.42-3.09,1.83-1.16.41-2.44.62-3.84.62h-7.36c-.18,0-.33-.06-.46-.19-.13-.13-.19-.28-.19-.46ZM342.41,194.66h2.02c.5,0,1.03-.06,1.56-.19.54-.13,1.03-.36,1.46-.71.43-.35.79-.84,1.07-1.48.28-.64.42-1.47.42-2.49s-.14-1.86-.42-2.49c-.28-.64-.64-1.13-1.08-1.48-.44-.35-.93-.59-1.46-.71-.53-.13-1.05-.19-1.55-.19h-2.02c-.18,0-.33.06-.46.19-.13.13-.19.28-.19.46v8.47c0,.18.06.33.19.46.13.13.28.19.46.19Z"/>
          </g>
        </g>
      </g>
    </g>
  </g>
</svg>